<svg width="50" height="50" viewBox="0 0 50 50" fill="none" xmlns="http://www.w3.org/2000/svg">
<path d="M24.9999 12.5C27.2916 12.5 29.1666 14.375 29.1666 16.6666C29.1666 18.9583 27.2916 20.8333 24.9999 20.8333C22.7083 20.8333 20.8333 18.9583 20.8333 16.6666C20.8333 14.375 22.7083 12.5 24.9999 12.5ZM24.9999 33.3333C30.6249 33.3333 37.0833 36.0208 37.4999 37.5H12.4999C12.9791 36 19.3958 33.3333 24.9999 33.3333ZM24.9999 8.33331C20.3958 8.33331 16.6666 12.0625 16.6666 16.6666C16.6666 21.2708 20.3958 25 24.9999 25C29.6041 25 33.3333 21.2708 33.3333 16.6666C33.3333 12.0625 29.6041 8.33331 24.9999 8.33331ZM24.9999 29.1666C19.4374 29.1666 8.33325 31.9583 8.33325 37.5V41.6666H41.6666V37.5C41.6666 31.9583 30.5624 29.1666 24.9999 29.1666Z" fill="white"/>
<rect x="20" y="11" width="10" height="12" fill="white"/>
<rect x="12" y="33" width="26" height="6" fill="white"/>
</svg>
