<svg width="44" height="39" viewBox="0 0 44 39" fill="none" xmlns="http://www.w3.org/2000/svg">
<path d="M22.0109 4.54872C20.3699 2.49816 16.3425 0.681824 11.8678 0.681824C5.94479 0.681824 1.17187 3.7367 0 6.59928V36.439C0 38.0621 1.0655 38.6809 2.21555 38.6809C3.15377 38.6809 3.68561 38.4039 4.26108 37.9555C5.47568 36.9083 7.92669 35.4985 11.8687 35.4985C15.7888 35.4985 18.5371 36.8655 19.6026 37.827C20.1572 38.2754 20.839 38.6818 22.0109 38.6818C23.161 38.6818 23.8219 38.2334 24.3974 37.827C25.5265 36.9302 28.2112 35.4994 32.1322 35.4994C36.0733 35.4994 38.5452 36.9302 39.7389 37.9555C40.3144 38.4039 40.8471 38.6818 41.7845 38.6818C42.9354 38.6818 44 38.0621 44 36.439V6.59928C42.8281 3.7367 38.0552 0.681824 32.1322 0.681824C27.6575 0.681824 23.6301 2.49816 22.0109 4.54872ZM3.43014 7.62455C3.92107 6.29944 7.01029 3.90712 11.8687 3.90712C16.7052 3.90712 19.859 6.32131 20.2845 7.62455V34.6445C18.2608 33.128 15.1706 32.2732 11.8687 32.2732C8.54399 32.2732 5.45477 33.128 3.43014 34.7302V7.62455ZM40.5699 7.62455V34.7302C38.5452 33.128 35.456 32.2732 32.1322 32.2732C28.8294 32.2732 25.7392 33.128 23.7155 34.6445V7.62455C24.141 6.32131 27.2948 3.90712 32.1322 3.90712C36.9897 3.90712 40.0807 6.29944 40.5699 7.62455Z" fill="white"/>
</svg>
